<?xml version="1.0" standalone="no"?>
<!DOCTYPE svg PUBLIC "-//W3C//DTD SVG 1.1//EN" "http://www.w3.org/Graphics/SVG/1.1/DTD/svg11.dtd" >
<svg xmlns="http://www.w3.org/2000/svg">
<metadata>
This is a custom SVG webfont generated by Briefcase Type Foundry.
</metadata>
<defs>
<font id="briefcasetype-OFgvyg5J" horiz-adv-x="591" >
<font-face units-per-em="1000" ascent="782" descent="-218" />
<missing-glyph horiz-adv-x="230" />
<glyph unicode=" "  horiz-adv-x="230" />
<glyph unicode="&#x09;" horiz-adv-x="230" />
<glyph unicode="&#xa0;" horiz-adv-x="230" />
<glyph unicode="A" horiz-adv-x="676" d="M438 289l-104 298l-104 -298h208zM271 722h135l259 -722h-128l-64 185h-278l-64 -185h-119z" />
<glyph unicode="B" horiz-adv-x="675" d="M300 423q72 0 106.5 22.5t34.5 75.5q0 48 -31 72.5t-91 24.5h-113v-195h94zM333 104q78 0 115.5 25t37.5 83q0 51 -34.5 79.5t-98.5 28.5h-147v-216h127zM86 722h214q57 0 106 -10t84 -32.5t55 -59.5t20 -92q0 -51 -21.5 -87.5t-50.5 -57.5q55 -21 88 -65t33 -113 q0 -100 -65 -152.5t-180 -52.5h-283v722z" />
<glyph unicode="C" horiz-adv-x="696" d="M363 -15q-80 0 -136.5 28.5t-93 79t-53.5 119.5t-17 149t17 149t53.5 119.5t93 79t136.5 28.5q58 0 106.5 -18t84 -51t56.5 -80t23 -105h-119q-13 82 -53 114.5t-98 32.5q-48 0 -80.5 -19.5t-53 -55t-29.5 -85t-9 -109.5q0 -59 9 -108.5t29.5 -85t53.5 -55.5t80 -20 q54 0 91.5 27.5t51.5 94.5h118q-2 -54 -22.5 -96.5t-55.5 -72t-81.5 -45t-101.5 -15.5z" />
<glyph unicode="D" horiz-adv-x="679" d="M86 722h205q94 0 157 -30t100 -80t52.5 -115t15.5 -136t-15 -136t-52.5 -115t-100 -80t-156.5 -30h-206v722zM286 104q60 0 99 21.5t62.5 57t32.5 82t9 96.5t-9.5 96.5t-32.5 82t-62 57t-99 21.5h-80v-514h80z" />
<glyph unicode="E" horiz-adv-x="611" d="M86 722h458v-104h-338v-195h260v-103h-260v-216h348v-104h-468v722z" />
<glyph unicode="F" horiz-adv-x="578" d="M86 722h452v-104h-332v-205h254v-104h-254v-309h-120v722z" />
<glyph unicode="G" horiz-adv-x="700" d="M364 -15q-80 0 -136.5 28.5t-93.5 79t-54 119.5t-17 149q0 81 17 149.5t54 119t93.5 79t136.5 28.5q115 0 185.5 -59.5t80.5 -168.5h-120q-12 60 -47 90.5t-99 30.5q-48 0 -81 -20.5t-53.5 -56.5t-29.5 -85t-9 -107t9 -107t29.5 -85t53.5 -56.5t81 -20.5q42 0 70.5 14.5 t46.5 40t26.5 59t10.5 71.5h-181v103h299v-48q1 -76 -12.5 -140t-45.5 -110t-84.5 -71.5t-129.5 -25.5z" />
<glyph unicode="H" horiz-adv-x="712" d="M86 722h120v-299h300v299h120v-722h-120v320h-300v-320h-120v722z" />
<glyph unicode="I" horiz-adv-x="292" d="M86 722h120v-722h-120v722z" />
<glyph unicode="J" horiz-adv-x="558" d="M245 -15q-50 0 -91.5 15.5t-71.5 46t-46.5 75.5t-16.5 104h120q1 -70 30.5 -102t74.5 -32q33 0 54 13.5t33 36.5t16.5 55t4.5 68v457h120v-457q0 -65 -11 -117t-37.5 -88t-70 -55.5t-108.5 -19.5z" />
<glyph unicode="K" horiz-adv-x="668" d="M86 722h120v-311l260 311h139l-292 -341l340 -381h-158l-289 329v-329h-120v722z" />
<glyph unicode="L" horiz-adv-x="532" d="M86 722h120v-618h300v-104h-420v722z" />
<glyph unicode="M" horiz-adv-x="864" d="M86 722h145l201 -567l202 567h144v-722h-120l7 489l-182 -489h-103l-181 489l7 -489h-120v722z" />
<glyph unicode="N" horiz-adv-x="713" d="M86 722h125l299 -511l-3 511h120v-722h-125l-299 512l3 -512h-120v722z" />
<glyph unicode="O" horiz-adv-x="719" d="M360 92q49 0 81 21.5t51.5 58t27.5 85.5t8 104t-8 104t-27.5 85.5t-51.5 58t-81 21.5t-81.5 -21.5t-52 -58t-27.5 -85.5t-8 -104t8 -104t27.5 -85.5t52 -58t81.5 -21.5zM360 -15q-78 0 -134 28.5t-92.5 79t-53.5 119.5t-17 149t17 149t53.5 119.5t92.5 79t134 28.5 t134 -28.5t92 -79t53 -119.5t17 -149t-17 -149t-53 -119.5t-92 -79t-134 -28.5z" />
<glyph unicode="P" horiz-adv-x="638" d="M344 390q33 0 57 9t40.5 24.5t24.5 36.5t8 44q0 47 -32.5 80.5t-97.5 33.5h-138v-228h138zM86 722h258q60 0 107.5 -14.5t81 -42.5t51.5 -68.5t18 -92.5q0 -51 -18 -91.5t-51.5 -68.5t-81 -42.5t-107.5 -14.5h-138v-287h-120v722z" />
<glyph unicode="Q" horiz-adv-x="712" d="M360 92q49 0 81 21.5t51.5 58t27.5 85.5t8 104t-8 104t-27.5 85.5t-51.5 58t-81 21.5t-81.5 -21.5t-52 -58t-27.5 -85.5t-8 -104t8 -104t27.5 -85.5t52 -58t81.5 -21.5zM343 -13q-2 0 -6 -0.5t-8 -0.5q-59 4 -107.5 29.5t-84 72t-55 115t-19.5 158.5q0 80 17 149 t53.5 119.5t92.5 79t134 28.5t134 -28.5t92 -79t53 -119.5t17 -149q0 -147 -50 -237t-135 -120l96 -172h-138z" />
<glyph unicode="R" horiz-adv-x="665" d="M348 396q63 0 95 32.5t32 78.5q0 47 -32 79t-95 32h-142v-222h142zM86 722h262q118 0 186 -56t68 -159q0 -46 -15.5 -84t-43.5 -65.5t-67 -43t-86 -15.5h-36l266 -299h-156l-258 296v-296h-120v722z" />
<glyph unicode="S" horiz-adv-x="631" d="M322 -15q-69 0 -120 17.5t-84.5 48t-49.5 72t-16 89.5h131q0 -28 10.5 -50.5t29.5 -38t44.5 -23.5t54.5 -8q63 0 98 26t35 81q0 34 -28.5 55t-71 38.5t-92.5 35t-92.5 43.5t-71 65.5t-28.5 101.5q0 43 15.5 80t46 63t75.5 41t105 15q54 0 99.5 -14.5t79 -41.5t52 -66.5 t18.5 -88.5h-130q0 22 -8.5 42t-24.5 34t-37.5 22.5t-48.5 8.5q-57 0 -87.5 -25.5t-30.5 -69.5q0 -37 28.5 -60t71 -40t92.5 -33.5t92.5 -41.5t71 -63.5t28.5 -100.5q0 -100 -65.5 -157t-191.5 -57z" />
<glyph unicode="T" horiz-adv-x="549" d="M214 618h-187v104h495v-104h-188v-618h-120v618z" />
<glyph unicode="U" horiz-adv-x="697" d="M348 -15q-73 0 -123 23.5t-81 67.5t-44.5 106.5t-13.5 140.5v399h120v-399q0 -52 6.5 -94.5t22.5 -73t43.5 -47t69.5 -16.5q43 0 70.5 16.5t43.5 47t22.5 73t6.5 94.5v399h120v-399q0 -78 -13.5 -140.5t-44.5 -106.5t-81.5 -67.5t-123.5 -23.5z" />
<glyph unicode="V" horiz-adv-x="653" d="M3 722h128l199 -571l193 571h127l-256 -722h-135z" />
<glyph unicode="W" horiz-adv-x="911" d="M3 722h128l138 -544l127 544h120l133 -545l132 545h127l-195 -722h-135l-122 531l-123 -531h-135z" />
<glyph unicode="X" horiz-adv-x="613" d="M244 369l-220 353h136l148 -249l148 249h133l-219 -349l232 -373h-137l-159 270l-162 -270h-132z" />
<glyph unicode="Y" horiz-adv-x="575" d="M227 273l-227 449h131l156 -332l161 332h127l-228 -449v-273h-120v273z" />
<glyph unicode="Z" horiz-adv-x="604" d="M50 104l341 514h-317v104h458v-104l-341 -514h361v-104h-502v104z" />
<glyph unicode="&#xc6;" horiz-adv-x="1007" d="M482 289v263l-169 -263h169zM470 722h470v-104h-338v-195h260v-103h-260v-216h348v-104h-468v185h-235l-119 -185h-128z" />
<glyph unicode="&#x152;" horiz-adv-x="1054" d="M360 92q49 0 81 21.5t51.5 58t27.5 85.5t8 104t-8 104t-27.5 85.5t-51.5 58t-81 21.5t-81.5 -21.5t-52 -58t-27.5 -85.5t-8 -104t8 -104t27.5 -85.5t52 -58t81.5 -21.5zM360 -15q-78 0 -134 28.5t-92.5 79t-53.5 119.5t-17 149t17 149t53.5 119.5t92.5 79t134 28.5 q36 0 67.5 -10t56 -26.5t42.5 -39t27 -46.5v107h434v-104h-339v-195h261v-103h-261v-216h349v-104h-444v104q-11 -24 -29 -46t-43 -38t-55.5 -25.5t-65.5 -9.5z" />
<glyph unicode="&#xc0;" horiz-adv-x="676" d="M438 289l-104 298l-104 -298h208zM271 722h135l259 -722h-128l-64 185h-278l-64 -185h-119zM159 937h142l91 -158h-108z" />
<glyph unicode="&#xc7;" horiz-adv-x="696" d="M360 -242q-27 0 -47.5 9t-33.5 23.5t-19.5 32.5t-6.5 36h65q0 -20 13 -30t27 -10q17 0 28 11.5t11 28.5q0 21 -12.5 30t-33.5 9h-58l25 90q-68 8 -116 39t-79 80.5t-45.5 114t-14.5 139.5q0 80 17 149t53.5 119.5t93 79t136.5 28.5q58 0 106.5 -18t84 -51t56.5 -80 t23 -105h-119q-13 82 -53 114.5t-98 32.5q-48 0 -80.5 -19.5t-53 -55t-29.5 -85t-9 -109.5q0 -59 9 -108.5t29.5 -85t53.5 -55.5t80 -20q54 0 91.5 27.5t51.5 94.5h118q-2 -51 -20.5 -91.5t-50 -70t-74 -46.5t-92.5 -20l-10 -33q42 -2 64.5 -27t22.5 -69q0 -18 -6 -35.5 t-18.5 -31.5t-32 -23t-47.5 -9z" />
<glyph unicode="&#xc9;" horiz-adv-x="611" d="M86 722h458v-104h-338v-195h260v-103h-260v-216h348v-104h-468v722zM328 937h144l-136 -158h-108z" />
<glyph unicode="&#xca;" horiz-adv-x="611" d="M238 937h146l113 -157h-107l-79 93l-79 -93h-107zM86 722h458v-104h-338v-195h260v-103h-260v-216h348v-104h-468v722z" />
<glyph unicode="&#xcb;" horiz-adv-x="611" d="M86 722h458v-104h-338v-195h260v-103h-260v-216h348v-104h-468v722zM438 777q-31 0 -52.5 21.5t-21.5 51.5q0 31 21.5 52.5t52.5 21.5q32 0 53.5 -21.5t21.5 -52.5q0 -30 -21.5 -51.5t-53.5 -21.5zM201 777q-31 0 -53 21.5t-22 51.5q0 31 22 52.5t53 21.5q30 0 52 -21.5 t22 -52.5q0 -30 -22 -51.5t-52 -21.5z" />
<glyph unicode="&#xc8;" horiz-adv-x="611" d="M159 937h142l91 -158h-108zM86 722h458v-104h-338v-195h260v-103h-260v-216h348v-104h-468v722z" />
<glyph unicode="&#xcf;" horiz-adv-x="292" d="M256 777q-31 0 -52.5 21.5t-21.5 51.5q0 31 21.5 52.5t52.5 21.5q32 0 53.5 -21.5t21.5 -52.5q0 -30 -21.5 -51.5t-53.5 -21.5zM43 777q-30 0 -52 21.5t-22 51.5q0 31 22 52.5t52 21.5q32 0 54 -21.5t22 -52.5q0 -30 -22 -51.5t-54 -21.5zM86 722h120v-722h-120v722z" />
<glyph unicode="&#x13f;" horiz-adv-x="532" d="M86 722h120v-618h300v-104h-420v722zM388 283q-32 0 -55 23t-23 55t23 55t55 23t54.5 -23t22.5 -55t-22.5 -55t-54.5 -23z" />
<glyph unicode="&#xd1;" horiz-adv-x="713" d="M432 777q-27 0 -47 8.5t-37.5 19t-34.5 19t-36 8.5q-27 0 -52 -13.5t-43 -33.5v92l17.5 16t21.5 16.5t26.5 12.5t33.5 5q26 0 45.5 -8.5t37 -19t35 -19t38.5 -8.5q28 0 51.5 14.5t42.5 34.5v-94q-14 -15 -38 -32.5t-61 -17.5zM86 722h125l299 -511l-3 511h120v-722h-125 l-299 512l3 -512h-120v722z" />
<glyph unicode="&#xd4;" horiz-adv-x="719" d="M286 937h146l113 -157h-107l-79 93l-79 -93h-107zM360 92q49 0 81 21.5t51.5 58t27.5 85.5t8 104t-8 104t-27.5 85.5t-51.5 58t-81 21.5t-81.5 -21.5t-52 -58t-27.5 -85.5t-8 -104t8 -104t27.5 -85.5t52 -58t81.5 -21.5zM360 -15q-78 0 -134 28.5t-92.5 79t-53.5 119.5 t-17 149t17 149t53.5 119.5t92.5 79t134 28.5t134 -28.5t92 -79t53 -119.5t17 -149t-17 -149t-53 -119.5t-92 -79t-134 -28.5z" />
<glyph unicode="&#xd6;" horiz-adv-x="719" d="M360 92q49 0 81 21.5t51.5 58t27.5 85.5t8 104t-8 104t-27.5 85.5t-51.5 58t-81 21.5t-81.5 -21.5t-52 -58t-27.5 -85.5t-8 -104t8 -104t27.5 -85.5t52 -58t81.5 -21.5zM360 -15q-78 0 -134 28.5t-92.5 79t-53.5 119.5t-17 149t17 149t53.5 119.5t92.5 79t134 28.5 t134 -28.5t92 -79t53 -119.5t17 -149t-17 -149t-53 -119.5t-92 -79t-134 -28.5zM478 777q-31 0 -52.5 21.5t-21.5 51.5q0 31 21.5 52.5t52.5 21.5q32 0 53.5 -21.5t21.5 -52.5q0 -30 -21.5 -51.5t-53.5 -21.5zM241 777q-31 0 -53 21.5t-22 51.5q0 31 22 52.5t53 21.5 q30 0 52 -21.5t22 -52.5q0 -30 -22 -51.5t-52 -21.5z" />
<glyph unicode="a" horiz-adv-x="558" d="M234 72q28 0 51.5 9.5t39.5 25.5t25 37.5t9 46.5v49l-89 -14q-55 -9 -83.5 -29t-28.5 -57q0 -26 19.5 -47t56.5 -21zM209 -15q-74 0 -118.5 39t-44.5 107q0 33 12 60t39.5 49t72 38t109.5 26l80 11v23q0 45 -20 68.5t-64 23.5q-92 0 -93 -76h-110q1 34 15 63.5t40.5 51.5 t65 35t88.5 13q97 0 144 -45.5t47 -145.5v-155l73 -171h-123l-39 92q-23 -48 -66.5 -77.5t-107.5 -29.5z" />
<glyph unicode="b" d="M304 79q30 0 52 14.5t36.5 38.5t21 55t6.5 64t-6.5 64t-21 55t-36.5 38.5t-52 14.5q-32 0 -54 -15t-36 -39t-20 -55t-6 -63t6 -63t20 -55t36 -39t54 -15zM75 722h113v-302q20 43 61 70t91 27q52 0 90 -20.5t62 -56.5t35.5 -84.5t11.5 -103.5q0 -56 -12.5 -105t-38 -85 t-64.5 -56.5t-91 -20.5q-46 0 -84.5 23.5t-60.5 62.5v-71h-113v722z" />
<glyph unicode="c" horiz-adv-x="550" d="M292 -15q-55 0 -99 20.5t-75.5 56.5t-48.5 84.5t-17 104.5q0 55 16 103.5t46.5 84.5t74 57t98.5 21q43 0 79 -13.5t63 -39t43.5 -61t21.5 -78.5h-111q-1 18 -8 36t-19.5 31.5t-30 22t-39.5 8.5q-32 0 -54 -13.5t-35.5 -37t-19.5 -55t-6 -66.5q0 -36 6.5 -67.5t21 -55 t36.5 -36.5t53 -13q42 0 66 24t32 63h112q-16 -87 -72.5 -134t-133.5 -47z" />
<glyph unicode="d" d="M287 79q32 0 54 15t36 39t20 55t6 63t-6 63t-20 55t-36 39t-54 15q-30 0 -52 -14.5t-36.5 -38.5t-21 -55t-6.5 -64t6.5 -64t21 -55t36.5 -38.5t52 -14.5zM250 -15q-52 0 -89.5 20.5t-61.5 56.5t-35.5 84t-11.5 104t12.5 105t38 85t64 56.5t90.5 20.5q46 0 85 -23.5 t61 -62.5v291h113v-722h-113v82q-21 -43 -62 -70t-91 -27z" />
<glyph unicode="e" horiz-adv-x="569" d="M399 293q-5 55 -33 92.5t-80 37.5q-48 0 -78.5 -36t-35.5 -94h227zM293 -15q-56 0 -100.5 21t-75.5 57t-48 84.5t-17 103.5t16 103.5t46.5 84.5t74 57t98.5 21q54 0 97 -21.5t73 -58t45.5 -85t15.5 -102.5q0 -10 -0.5 -19t-1.5 -19h-344q5 -57 36 -95t85 -38 q32 0 58 13.5t40 41.5h117q-9 -31 -27.5 -58t-45.5 -47.5t-62.5 -32t-79.5 -11.5z" />
<glyph unicode="f" horiz-adv-x="361" d="M103 409h-68v93h67l94 220h115l-94 -220h114v-93h-115v-409h-113v409z" />
<glyph unicode="g" horiz-adv-x="555" d="M260 227q40 0 65.5 29t25.5 75q0 45 -25.5 74.5t-65.5 29.5t-65.5 -29.5t-25.5 -74.5q0 -46 25.5 -75t65.5 -29zM264 -149q63 0 96.5 20.5t33.5 53.5q0 34 -33.5 54t-96.5 20t-96 -21t-33 -53q0 -33 33 -53.5t96 -20.5zM264 -233q-114 0 -177.5 42.5t-63.5 115.5 q0 30 9.5 50.5t28.5 42.5l117 141q-52 17 -86.5 61t-34.5 111q0 42 15 76t41.5 58.5t64 38t82.5 13.5q54 0 94 -18.5t66 -47.5l105 71v-118l-66 -45q2 -5 3 -12.5t1 -15.5q0 -40 -13 -72.5t-37 -56t-56.5 -38t-71.5 -18.5l-57 -68q14 2 30 3.5t31 1.5q41 0 80 -8.5t69.5 -27 t49 -49t18.5 -73.5q0 -73 -64 -115.5t-178 -42.5z" />
<glyph unicode="h" d="M75 722h113v-294q20 40 56.5 64.5t89.5 24.5q59 0 94.5 -20.5t55 -56.5t26 -84.5t6.5 -103.5v-252h-113v252q0 25 -2 54.5t-11.5 55t-28.5 42.5t-53 17q-31 0 -53.5 -14.5t-37.5 -37t-22 -50.5t-7 -54v-265h-113v722z" />
<glyph unicode="i" horiz-adv-x="262" d="M61 639q0 29 20.5 48.5t49.5 19.5t49.5 -19.5t20.5 -48.5q0 -28 -20.5 -47.5t-49.5 -19.5t-49.5 19.5t-20.5 47.5zM75 502h113v-502h-113v502z" />
<glyph unicode="j" horiz-adv-x="262" d="M61 639q0 29 20.5 48.5t49.5 19.5t49.5 -19.5t20.5 -48.5q0 -28 -20.5 -47.5t-49.5 -19.5t-49.5 19.5t-20.5 47.5zM75 0v502h113v-507l-92 -213h-115z" />
<glyph unicode="k" horiz-adv-x="536" d="M75 722h113v-413l181 193h131l-205 -219l236 -283h-143l-200 240v-240h-113v722z" />
<glyph unicode="l" horiz-adv-x="297" d="M75 198v524h113v-499l95 -223h-123z" />
<glyph unicode="m" horiz-adv-x="894" d="M75 502h98v-100q6 14 17.5 34t30 38t45 30.5t62.5 12.5q32 0 57 -10t43 -26.5t30 -38t19 -43.5q6 15 19.5 35.5t34.5 39t49 31t64 12.5q57 0 91.5 -20.5t53.5 -56.5t25 -84.5t6 -103.5v-252h-114v252q0 25 -2 54.5t-10.5 55t-26.5 42.5t-50 17q-29 0 -50.5 -14.5 t-35.5 -37.5t-20.5 -50.5t-6.5 -54.5v-264h-114v252q0 25 -2 54.5t-10.5 55t-26.5 42.5t-50 17q-29 0 -50 -14.5t-35 -37.5t-21 -50.5t-7 -54.5v-264h-113v502z" />
<glyph unicode="n" d="M75 502h98v-100q6 14 18 34t31.5 38t47 30.5t64.5 12.5q59 0 94.5 -20.5t55 -56.5t26 -84.5t6.5 -103.5v-252h-113v252q0 25 -2 54.5t-11.5 55t-28.5 42.5t-53 17q-31 0 -53.5 -14.5t-37.5 -37.5t-22 -50.5t-7 -54.5v-264h-113v502z" />
<glyph unicode="o" horiz-adv-x="582" d="M291 79q32 0 55 13.5t37.5 37t21 55t6.5 66.5t-6.5 66.5t-21 55t-37.5 37t-55 13.5t-54.5 -13.5t-37 -37t-21.5 -55t-7 -66.5t7 -66.5t21.5 -55t37 -37t54.5 -13.5zM291 -15q-55 0 -99.5 21t-75.5 57t-47.5 84.5t-16.5 103.5t16.5 103.5t47.5 84.5t75.5 57t99.5 21 t99.5 -21t75.5 -57t48 -84.5t17 -103.5t-17 -103.5t-48 -84.5t-75.5 -57t-99.5 -21z" />
<glyph unicode="p" d="M304 79q30 0 52 14.5t36.5 38.5t21 55t6.5 64t-6.5 64t-21 55t-36.5 38.5t-52 14.5q-32 0 -54 -15t-36 -39t-20 -55t-6 -63t6 -63t20 -55t36 -39t54 -15zM75 502h113v-82q20 43 61 70t91 27q52 0 90 -20.5t62 -56.5t35.5 -84.5t11.5 -103.5q0 -56 -12.5 -105t-38 -85 t-64.5 -56.5t-91 -20.5q-46 0 -84.5 23.5t-60.5 62.5v-289h-113v720z" />
<glyph unicode="q" d="M287 79q32 0 54 15t36 39t20 55t6 63t-6 63t-20 55t-36 39t-54 15q-30 0 -52 -14.5t-36.5 -38.5t-21 -55t-6.5 -64t6.5 -64t21 -55t36.5 -38.5t52 -14.5zM250 -15q-52 0 -89.5 20.5t-61.5 56.5t-35.5 84t-11.5 104t12.5 105t38 85t64 56.5t90.5 20.5q46 0 85 -23.5 t61 -62.5v71h113v-720h-113v300q-21 -43 -62 -70t-91 -27z" />
<glyph unicode="r" horiz-adv-x="386" d="M75 502h98v-105l183 125v-118l-168 -114v-290h-113v502z" />
<glyph unicode="s" horiz-adv-x="528" d="M262 -15q-94 0 -151 42.5t-59 123.5h113q2 -40 28 -59.5t69 -19.5q21 0 39.5 4t32.5 12t22.5 21.5t8.5 31.5q0 25 -22.5 38t-56 21.5t-73 16.5t-73 24.5t-56 45.5t-22.5 79q0 35 14.5 63t41 47.5t63.5 30t81 10.5t81 -11t63.5 -32t42 -52t15.5 -71h-111q-2 35 -23.5 57 t-67.5 22q-47 0 -69 -16.5t-22 -42.5t22.5 -39.5t56.5 -22.5t74 -18t74 -25.5t56.5 -45.5t22.5 -78q0 -40 -17.5 -69.5t-47 -49t-68.5 -29t-82 -9.5z" />
<glyph unicode="t" horiz-adv-x="366" d="M102 198v211h-74v93h74v91l113 115v-206h114v-93h-114v-186l95 -223h-122z" />
<glyph unicode="u" d="M188 502v-252q0 -25 2 -54.5t11.5 -55t28.5 -42.5t53 -17q31 0 53.5 14.5t37.5 37.5t22 50.5t7 54.5v264h113v-502h-98v100q-6 -14 -18 -34t-31.5 -38t-47 -30.5t-64.5 -12.5q-59 0 -95 20.5t-55.5 56.5t-25.5 84t-6 104v252h113z" />
<glyph unicode="v" horiz-adv-x="494" d="M8 502h117l122 -368l127 368h112l-182 -502h-114z" />
<glyph unicode="w" horiz-adv-x="759" d="M8 502h117l98 -368l107 368h104l102 -368l102 368h113l-158 -502h-114l-99 355l-100 -355h-114z" />
<glyph unicode="x" horiz-adv-x="507" d="M195 260l-169 242h128l100 -155l103 155h120l-166 -236l185 -266h-128l-117 179l-119 -179h-120z" />
<glyph unicode="y" horiz-adv-x="508" d="M198 0l-190 502h117l129 -375l133 375h113l-270 -720h-111z" />
<glyph unicode="z" horiz-adv-x="498" d="M54 93l255 316h-239v93h372v-93l-255 -316h263v-93h-396v93z" />
<glyph unicode="&#xe6;" horiz-adv-x="870" d="M698 301q-2 19 -8.5 40.5t-20 39.5t-34 30t-49.5 12q-27 0 -47.5 -11t-34.5 -29t-22 -39.5t-10 -42.5h226zM234 72q29 0 52.5 9.5t39.5 26t24.5 38t8.5 45.5v29h-61q-30 0 -55.5 -4.5t-44 -14.5t-29.5 -25t-11 -36q0 -35 24.5 -51.5t51.5 -16.5zM808 134 q-9 -31 -27.5 -58t-45.5 -47.5t-62.5 -32t-79.5 -11.5q-71 0 -122 34t-71 88q-8 -25 -25 -47.5t-42 -39t-56 -26t-68 -9.5q-74 0 -118.5 39t-44.5 107q0 34 16 65t49 54t84 37t120 14h44v37q0 18 -3 34.5t-12 29.5t-25.5 20.5t-43.5 7.5q-92 0 -93 -76h-110q1 34 15 63.5 t40 51.5t63 35t84 13q26 0 49.5 -3t44 -11.5t37 -23t28.5 -38.5q24 35 63 55.5t91 20.5q53 0 95.5 -20.5t72.5 -56.5t46.5 -84.5t16.5 -103.5v-14.5t-1 -17.5h-345q2 -62 34.5 -101.5t86.5 -39.5q25 0 42.5 6.5t29 15t18 18t9.5 15.5h116z" />
<glyph unicode="&#x153;" horiz-adv-x="929" d="M759 293q-5 55 -33.5 92.5t-80.5 37.5q-47 0 -78 -36t-36 -94h228zM291 79q32 0 55 13.5t37.5 37t21 55t6.5 66.5t-6.5 66.5t-21 55t-37.5 37t-55 13.5t-54.5 -13.5t-37 -37t-21.5 -55t-7 -66.5t7 -66.5t21.5 -55t37 -37t54.5 -13.5zM291 -15q-55 0 -99.5 21t-75.5 57 t-47.5 84.5t-16.5 103.5t16.5 103.5t47.5 84.5t75.5 57t99.5 21q63 0 107.5 -28t71.5 -76q26 48 70 76t107 28q54 0 97 -21.5t73 -58t45.5 -85t15.5 -102.5q0 -8 -0.5 -19t-1.5 -19h-345q5 -57 36.5 -95t84.5 -38q32 0 58.5 13.5t40.5 41.5h117q-10 -31 -28 -58t-45 -47.5 t-62.5 -32t-80.5 -11.5q-64 0 -109.5 28t-71.5 76q-26 -48 -71.5 -76t-108.5 -28z" />
<glyph unicode="&#xe0;" horiz-adv-x="558" d="M234 72q28 0 51.5 9.5t39.5 25.5t25 37.5t9 46.5v49l-89 -14q-55 -9 -83.5 -29t-28.5 -57q0 -26 19.5 -47t56.5 -21zM209 -15q-74 0 -118.5 39t-44.5 107q0 33 12 60t39.5 49t72 38t109.5 26l80 11v23q0 45 -20 68.5t-64 23.5q-92 0 -93 -76h-110q1 34 15 63.5t40.5 51.5 t65 35t88.5 13q97 0 144 -45.5t47 -145.5v-155l73 -171h-123l-39 92q-23 -48 -66.5 -77.5t-107.5 -29.5zM150 725h115l80 -156h-94z" />
<glyph unicode="&#xe7;" horiz-adv-x="550" d="M285 -242q-27 0 -47.5 9t-33.5 23.5t-19.5 32.5t-6.5 36h65q0 -20 13 -30t27 -10q17 0 28 11.5t11 28.5q0 21 -12.5 30t-33.5 9h-58l26 92q-44 8 -79.5 31.5t-60.5 58t-38.5 78.5t-13.5 93q0 55 16 103.5t46.5 84.5t74 57t98.5 21q43 0 79 -13.5t63 -39t43.5 -61 t21.5 -78.5h-111q-1 18 -8 36t-19.5 31.5t-30 22t-39.5 8.5q-32 0 -54 -13.5t-35.5 -37t-19.5 -55t-6 -66.5q0 -36 6.5 -67.5t21 -55t36.5 -36.5t53 -13q42 0 66 24t32 63h112q-15 -81 -65.5 -127t-120.5 -53l-10 -33q42 -2 64.5 -27t22.5 -69q0 -18 -6 -35.5t-18.5 -31.5 t-32 -23t-47.5 -9z" />
<glyph unicode="&#xe9;" horiz-adv-x="569" d="M311 719h125l-122 -154h-84zM399 293q-5 55 -33 92.5t-80 37.5q-48 0 -78.5 -36t-35.5 -94h227zM293 -15q-56 0 -100.5 21t-75.5 57t-48 84.5t-17 103.5t16 103.5t46.5 84.5t74 57t98.5 21q54 0 97 -21.5t73 -58t45.5 -85t15.5 -102.5q0 -10 -0.5 -19t-1.5 -19h-344 q5 -57 36 -95t85 -38q32 0 58 13.5t40 41.5h117q-9 -31 -27.5 -58t-45.5 -47.5t-62.5 -32t-79.5 -11.5z" />
<glyph unicode="&#xea;" horiz-adv-x="569" d="M221 719h126l99 -154h-92l-70 90l-71 -90h-91zM399 293q-5 55 -33 92.5t-80 37.5q-48 0 -78.5 -36t-35.5 -94h227zM293 -15q-56 0 -100.5 21t-75.5 57t-48 84.5t-17 103.5t16 103.5t46.5 84.5t74 57t98.5 21q54 0 97 -21.5t73 -58t45.5 -85t15.5 -102.5q0 -10 -0.5 -19 t-1.5 -19h-344q5 -57 36 -95t85 -38q32 0 58 13.5t40 41.5h117q-9 -31 -27.5 -58t-45.5 -47.5t-62.5 -32t-79.5 -11.5z" />
<glyph unicode="&#xeb;" horiz-adv-x="569" d="M389 572q-29 0 -49.5 19t-20.5 48t20.5 48t49.5 19q30 0 50 -19t20 -48t-20 -48t-50 -19zM178 572q-29 0 -49.5 19t-20.5 48t20.5 48t49.5 19q30 0 50 -19t20 -48t-20 -48t-50 -19zM399 293q-5 55 -33 92.5t-80 37.5q-48 0 -78.5 -36t-35.5 -94h227zM293 -15 q-56 0 -100.5 21t-75.5 57t-48 84.5t-17 103.5t16 103.5t46.5 84.5t74 57t98.5 21q54 0 97 -21.5t73 -58t45.5 -85t15.5 -102.5q0 -10 -0.5 -19t-1.5 -19h-344q5 -57 36 -95t85 -38q32 0 58 13.5t40 41.5h117q-9 -31 -27.5 -58t-45.5 -47.5t-62.5 -32t-79.5 -11.5z" />
<glyph unicode="&#xe8;" horiz-adv-x="569" d="M399 293q-5 55 -33 92.5t-80 37.5q-48 0 -78.5 -36t-35.5 -94h227zM293 -15q-56 0 -100.5 21t-75.5 57t-48 84.5t-17 103.5t16 103.5t46.5 84.5t74 57t98.5 21q54 0 97 -21.5t73 -58t45.5 -85t15.5 -102.5q0 -10 -0.5 -19t-1.5 -19h-344q5 -57 36 -95t85 -38 q32 0 58 13.5t40 41.5h117q-9 -31 -27.5 -58t-45.5 -47.5t-62.5 -32t-79.5 -11.5zM148 725h115l80 -156h-94z" />
<glyph unicode="&#xef;" horiz-adv-x="262" d="M219 575q-26 0 -44.5 18.5t-18.5 44.5q0 27 18.5 45.5t44.5 18.5q27 0 45 -18.5t18 -45.5q0 -26 -18 -44.5t-45 -18.5zM41 575q-26 0 -44.5 18.5t-18.5 44.5q0 27 18.5 45.5t44.5 18.5q27 0 45 -18.5t18 -45.5q0 -26 -18 -44.5t-45 -18.5zM75 502h113v-502h-113v502z" />
<glyph unicode="&#x140;" horiz-adv-x="395" d="M75 198v524h113v-499l95 -223h-123zM327 283q-32 0 -55 23t-23 55t23 55t55 23t54.5 -23t22.5 -55t-22.5 -55t-54.5 -23z" />
<glyph unicode="&#xf1;" d="M75 502h98v-100q6 14 18 34t31.5 38t47 30.5t64.5 12.5q59 0 94.5 -20.5t55 -56.5t26 -84.5t6.5 -103.5v-252h-113v252q0 25 -2 54.5t-11.5 55t-28.5 42.5t-53 17q-31 0 -53.5 -14.5t-37.5 -37.5t-22 -50.5t-7 -54.5v-264h-113v502zM365 573q-24 0 -42.5 7.5t-34.5 16.5 t-32 16.5t-34 7.5q-49 0 -84 -41v80q13 12 33.5 28t55.5 16q24 0 42 -7t34 -16t32 -16t35 -7q25 0 46 11.5t38 30.5v-79q-6 -7 -14 -15t-19 -15.5t-25 -12.5t-31 -5z" />
<glyph unicode="&#xf4;" horiz-adv-x="582" d="M228 719h126l99 -154h-92l-70 90l-71 -90h-91zM291 79q32 0 55 13.5t37.5 37t21 55t6.5 66.5t-6.5 66.5t-21 55t-37.5 37t-55 13.5t-54.5 -13.5t-37 -37t-21.5 -55t-7 -66.5t7 -66.5t21.5 -55t37 -37t54.5 -13.5zM291 -15q-55 0 -99.5 21t-75.5 57t-47.5 84.5 t-16.5 103.5t16.5 103.5t47.5 84.5t75.5 57t99.5 21t99.5 -21t75.5 -57t48 -84.5t17 -103.5t-17 -103.5t-48 -84.5t-75.5 -57t-99.5 -21z" />
<glyph unicode="&#xf6;" horiz-adv-x="582" d="M396 572q-29 0 -49.5 19t-20.5 48t20.5 48t49.5 19q30 0 50 -19t20 -48t-20 -48t-50 -19zM185 572q-29 0 -49.5 19t-20.5 48t20.5 48t49.5 19q30 0 50 -19t20 -48t-20 -48t-50 -19zM291 79q32 0 55 13.5t37.5 37t21 55t6.5 66.5t-6.5 66.5t-21 55t-37.5 37t-55 13.5 t-54.5 -13.5t-37 -37t-21.5 -55t-7 -66.5t7 -66.5t21.5 -55t37 -37t54.5 -13.5zM291 -15q-55 0 -99.5 21t-75.5 57t-47.5 84.5t-16.5 103.5t16.5 103.5t47.5 84.5t75.5 57t99.5 21t99.5 -21t75.5 -57t48 -84.5t17 -103.5t-17 -103.5t-48 -84.5t-75.5 -57t-99.5 -21z" />
<glyph unicode="$" horiz-adv-x="631" d="M273 -12q-57 6 -98.5 25t-68.5 48.5t-40.5 68t-13.5 82.5h131q0 -45 25 -74t65 -40v225q-38 14 -74 31.5t-64.5 42t-46 59t-17.5 82.5q0 80 51 133.5t151 63.5v95h92v-97q43 -6 79.5 -23t62.5 -43.5t40.5 -62t14.5 -78.5h-130q0 33 -18 59t-49 38v-211q39 -14 77 -30 t68.5 -40t49.5 -58.5t19 -84.5q0 -91 -54.5 -146.5t-159.5 -65.5v-99h-92v100zM455 199q0 32 -25.5 52t-64.5 37v-193q43 8 66.5 33.5t23.5 70.5zM195 538q0 -33 21.5 -53.5t56.5 -36.5v180q-38 -8 -58 -31.5t-20 -58.5z" />
<glyph unicode="&#xa2;" horiz-adv-x="569" d="M171 353q0 -55 17.5 -97.5t59.5 -59.5v317q-40 -17 -58.5 -60.5t-18.5 -99.5zM248 93q-44 7 -80 31t-61.5 59t-40 78.5t-14.5 91.5q0 49 14 93t39.5 78.5t62 58t80.5 30.5v109h87v-106q36 -5 67.5 -21t55 -40.5t38.5 -57t19 -70.5h-108q-2 29 -21 54.5t-51 34.5v-328 q29 8 48 28.5t25 51.5h109q-7 -39 -24 -69.5t-41 -53t-54 -36.5t-63 -18v-91h-87v93z" />
<glyph unicode="&#xa3;" horiz-adv-x="630" d="M63 103q32 15 49.5 46t17.5 75v85h-77v99h77v59q0 57 8.5 106.5t31.5 86t64 57t107 20.5q42 0 80 -11t67.5 -38t47 -72t17.5 -113h-119q-2 64 -23 95.5t-69 31.5q-30 0 -48 -12.5t-28.5 -34.5t-14 -52t-3.5 -64v-59h167v-99h-167v-86q0 -24 -8 -44.5t-18.5 -36t-21 -25.5 t-15.5 -14h249l158 79v-108l-149 -74h-380v103z" />
<glyph unicode="&#xa5;" horiz-adv-x="575" d="M227 122h-147v88h147v62h-147v88h104l-184 362h131l159 -333l159 333h126l-185 -362h105v-88h-148v-62h148v-88h-148v-122h-120v122z" />
<glyph unicode="&#x20ac;" horiz-adv-x="681" d="M402 -15q-61 0 -108.5 20.5t-82 55t-56 81t-29.5 99.5h-86v82h75q-1 6 -1 13v24v13t1 13q0 7 1 15h-76v82h85q10 57 34 104t59.5 80.5t81.5 51.5t101 18q49 0 87 -11t66.5 -30.5t47.5 -47t30 -59.5l-107 -22q-37 68 -123 68q-32 0 -59 -11.5t-47.5 -31.5t-34 -48 t-19.5 -61h293l-22 -82h-281q-1 -6 -1 -13q-1 -6 -1 -13v-15v-25q0 -6 1 -12h259l-22 -82h-225q13 -72 56 -113t103 -41q36 0 61.5 13.5t45.5 39.5l112 -36q-32 -60 -88.5 -89.5t-130.5 -29.5z" />
<glyph unicode="&#xa4;" horiz-adv-x="651" d="M325 127q-79 0 -132 44l-72 -72l-55 54l76 76q-34 59 -34 132q0 69 32 127l-74 75l62 61l69 -70q26 20 58 31t70 11t70 -11t58 -31l70 70l62 -61l-75 -75q16 -28 24.5 -60t8.5 -67q0 -73 -35 -131l77 -77l-55 -54l-73 72q-26 -21 -59.5 -32.5t-72.5 -11.5zM325 221 q28 0 50.5 11.5t38 31t23.5 45t8 52.5q0 28 -8 53.5t-23.5 45t-38 31t-50.5 11.5q-29 0 -51.5 -12t-38 -31.5t-24 -45t-8.5 -52.5q0 -28 8.5 -53t24 -44.5t38 -31t51.5 -11.5z" />
<glyph unicode="#" horiz-adv-x="720" d="M417 266l34 191h-148l-33 -191h147zM141 167h-134l19 99h133l33 191h-132l16 99h135l30 166h111l-31 -166h147l30 166h111l-30 -166h134l-19 -99h-133l-33 -191h134l-19 -99h-134l-30 -167h-111l30 167h-146l-30 -167h-112z" />
<glyph unicode="0" horiz-adv-x="624" d="M312 -15q-69 0 -118.5 28.5t-82 78.5t-48 119t-15.5 150t15.5 150t48 119t82 78.5t118.5 28.5t118.5 -28.5t82 -78.5t48 -119t15.5 -150t-15.5 -150t-48 -119t-82 -78.5t-118.5 -28.5zM312 630q-32 0 -54.5 -12t-38.5 -34l224 -334q6 51 6 111q0 57 -5.5 106t-21 85 t-42 57t-68.5 21zM312 92q32 0 54.5 12t38.5 34l-224 333q-4 -25 -5 -53t-1 -57q0 -57 5.5 -106t21 -85t42 -57t68.5 -21z" />
<glyph unicode="1" horiz-adv-x="392" d="M193 591l-163 -100v127l171 104h112v-722h-120v591z" />
<glyph unicode="2" horiz-adv-x="629" d="M73 104l242 232q16 16 33 35.5t31 42.5t23 49t9 53q0 52 -24 83t-74 31q-48 0 -78 -31t-30 -99h-120q0 48 14 91.5t43 75.5t73 51t103 19q58 0 99.5 -17.5t68.5 -48t40 -71t13 -86.5q0 -39 -13.5 -75.5t-34 -69t-45 -60.5t-47.5 -49l-168 -156h325v-104h-483v104z" />
<glyph unicode="3" horiz-adv-x="627" d="M316 -15q-56 0 -102.5 15t-80 44t-52.5 70.5t-19 94.5h120q0 -51 34.5 -84t93.5 -33q62 0 95 32.5t33 85.5q0 30 -11.5 51.5t-30.5 36t-45 21.5t-54 7h-33v95h33q51 0 84.5 28t33.5 79q0 18 -5.5 36t-18 33t-32 24t-46.5 9q-47 0 -74.5 -28.5t-27.5 -72.5h-120 q0 47 17 85.5t47 65.5t70.5 42t87.5 15q49 0 90.5 -13t71.5 -38.5t47 -63t17 -86.5q0 -27 -8.5 -51.5t-22.5 -45.5t-31.5 -36.5t-36.5 -23.5q24 -8 46.5 -24.5t40 -39t28 -50.5t10.5 -61q0 -102 -65.5 -160.5t-183.5 -58.5z" />
<glyph unicode="4" horiz-adv-x="617" d="M323 172h-269v104l181 446h121l-182 -446h149v138h120v-138h128v-104h-128v-172h-120v172z" />
<glyph unicode="5" horiz-adv-x="630" d="M303 -15q-53 0 -93.5 15t-70 41t-46.5 60.5t-22 73.5h119q9 -38 37 -60.5t76 -22.5q63 0 94.5 42t31.5 105q0 62 -28.5 102t-87.5 40q-42 0 -70 -22t-41 -64h-114l31 427h397v-104h-290l-18 -214q3 8 12.5 21.5t27.5 26t45 22t64 9.5q49 0 86.5 -18t62.5 -50t37.5 -77 t12.5 -99q0 -52 -15 -98t-46.5 -80.5t-79 -55t-112.5 -20.5z" />
<glyph unicode="6" horiz-adv-x="627" d="M313 92q33 0 56 11t37.5 30.5t21 45.5t6.5 56q0 28 -7 54t-22 45t-38 30.5t-54 11.5q-57 0 -88.5 -40.5t-31.5 -100.5q0 -27 6 -52.5t20.5 -45.5t37.5 -32.5t56 -12.5zM313 -15q-58 0 -104 19.5t-78 53.5t-49 79.5t-17 97.5q0 45 14.5 89.5t34.5 81.5l174 316h135 l-175 -298q20 14 48.5 23t60.5 9q42 0 79.5 -15t65 -43.5t44 -69.5t16.5 -93t-17 -97.5t-49 -79.5t-78 -53.5t-105 -19.5z" />
<glyph unicode="7" horiz-adv-x="529" d="M372 618h-333v104h454v-104l-249 -618h-129z" />
<glyph unicode="8" horiz-adv-x="624" d="M312 421q22 0 43 8t37 22t25.5 34t9.5 44q0 25 -9 45t-25 34t-36.5 21.5t-44.5 7.5q-23 0 -44 -7.5t-37 -21.5t-25 -34t-9 -45q0 -24 10 -44t26 -34t36.5 -22t42.5 -8zM312 89q27 0 51.5 8.5t43.5 24t30 37.5t11 50q0 27 -12 48.5t-31.5 36.5t-43.5 23.5t-49 8.5 q-24 0 -48.5 -8.5t-43.5 -23.5t-31 -36.5t-12 -48.5q0 -28 11 -50t30 -37.5t43 -24t51 -8.5zM312 -15q-53 0 -100.5 14.5t-83.5 42.5t-57.5 70t-21.5 97q0 35 12.5 62.5t31 48t39.5 35.5t38 24q-11 10 -26 22.5t-29 30t-24 41t-10 56.5q0 48 18.5 86.5t50 65.5t73.5 41.5 t89 14.5t89 -14.5t74 -41.5t50.5 -65.5t18.5 -86.5q0 -33 -10 -56.5t-24 -41t-29.5 -30t-26.5 -22.5q17 -9 38 -24t39.5 -36t31 -48.5t12.5 -62.5q0 -55 -21.5 -96.5t-57.5 -69.5t-83.5 -42.5t-100.5 -14.5z" />
<glyph unicode="9" horiz-adv-x="624" d="M193 487q0 -29 7 -54.5t22 -44.5t38 -30.5t54 -11.5q28 0 50.5 11t38 29.5t23.5 44.5t8 56q0 27 -6 52.5t-20.5 45.5t-37.5 32.5t-56 12.5t-56 -11t-37.5 -30.5t-21 -45.5t-6.5 -56zM65 487q0 52 17 97.5t49 79.5t78 53.5t105 19.5q58 0 104 -19.5t78 -53.5t49 -79.5 t17 -97.5q0 -44 -14.5 -89t-34.5 -81l-174 -317h-135l175 298q-20 -14 -48.5 -23t-60.5 -9q-42 0 -79.5 15t-65 43.5t-44 69.5t-16.5 93z" />
<glyph unicode="+" horiz-adv-x="564" d="M60 409h173v169h98v-169h173v-97h-173v-169h-98v169h-173v97z" />
<glyph unicode="&#x3c;" horiz-adv-x="564" d="M504 252v-113l-444 165v114l444 165v-113l-321 -109z" />
<glyph unicode="&#x3e;" horiz-adv-x="564" d="M380 361l-321 109v113l444 -165v-114l-444 -165v113z" />
<glyph unicode="=" horiz-adv-x="564" d="M60 322h444v-97h-444v97zM60 501h444v-97h-444v97z" />
<glyph unicode="|" horiz-adv-x="264" d="M72 867h120v-1043h-120v1043z" />
<glyph unicode="'" horiz-adv-x="262" d="M76 722h116l-12 -267h-93z" />
<glyph unicode="&#x22;" horiz-adv-x="406" d="M227 722h109l-11 -267h-88zM70 722h109l-12 -267h-88z" />
<glyph unicode="_" horiz-adv-x="550" d="M50 0h450v-99h-450v99z" />
<glyph unicode="&#x2014;" horiz-adv-x="1000" d="M50 365h900v-98h-900v98z" />
<glyph unicode="&#x2013;" horiz-adv-x="500" d="M50 365h400v-98h-400v98z" />
<glyph unicode="-" horiz-adv-x="350" d="M50 365h250v-98h-250v98z" />
<glyph unicode="&#x2039;" horiz-adv-x="335" d="M64 213v102l207 171v-115l-124 -107l124 -107v-115z" />
<glyph unicode="&#x203a;" horiz-adv-x="335" d="M64 42v115l124 107l-124 107v115l207 -171v-102z" />
<glyph unicode="&#x2019;" horiz-adv-x="252" d="M84 722h115l-51 -261h-94z" />
<glyph unicode="&#x201d;" horiz-adv-x="425" d="M257 722h115l-51 -261h-95zM84 722h115l-51 -261h-94z" />
<glyph unicode="&#x2018;" horiz-adv-x="252" d="M104 722h95l-30 -261h-116z" />
<glyph unicode="&#x201c;" horiz-adv-x="425" d="M277 722h94l-30 -261h-115zM104 722h95l-30 -261h-116z" />
<glyph unicode="," horiz-adv-x="261" d="M87 135h118l-66 -295h-89z" />
<glyph unicode="." horiz-adv-x="323" d="M162 -13q-32 0 -54 21.5t-22 52.5q0 30 22 52t54 22q31 0 53 -22t22 -52q0 -31 -22 -52.5t-53 -21.5z" />
<glyph unicode=":" horiz-adv-x="323" d="M162 -13q-32 0 -54 21.5t-22 52.5q0 30 22 52t54 22q31 0 53 -22t22 -52q0 -31 -22 -52.5t-53 -21.5zM162 365q-32 0 -54 21.5t-22 52.5q0 30 22 52t54 22q31 0 53 -22t22 -52q0 -31 -22 -52.5t-53 -21.5z" />
<glyph unicode=";" horiz-adv-x="294" d="M94 135h118l-66 -295h-89zM153 365q-32 0 -54 21.5t-22 52.5q0 30 22 52t54 22q31 0 53 -22t22 -52q0 -31 -22 -52.5t-53 -21.5z" />
<glyph unicode="?" horiz-adv-x="508" d="M245 -7q-32 0 -53.5 21.5t-21.5 52.5t21.5 52.5t53.5 21.5t53.5 -21.5t21.5 -52.5t-21.5 -52.5t-53.5 -21.5zM191 250q0 44 12 75.5t30 55.5t39.5 42t39.5 35.5t30 36.5t12 44q0 15 -4.5 32.5t-16 32.5t-30.5 25t-49 10t-49.5 -12t-31 -29t-15.5 -36t-4 -33h-115 q0 47 15.5 85.5t43.5 65.5t67 42t86 15q46 0 86 -13.5t69.5 -39t46 -63.5t16.5 -86q0 -38 -13 -66t-33 -50t-42.5 -41t-42.5 -38t-33 -40.5t-13 -49.5v-47h-101v47z" />
<glyph unicode="&#xbf;" horiz-adv-x="508" d="M262 516q32 0 53.5 -21.5t21.5 -52.5t-21.5 -52.5t-53.5 -21.5t-53.5 21.5t-21.5 52.5t21.5 52.5t53.5 21.5zM316 259q0 -44 -12 -75.5t-30 -55.5t-39.5 -42t-39.5 -35.5t-30 -36.5t-12 -44q0 -15 4.5 -32.5t16 -32.5t30.5 -25t49 -10t49.5 12t31 29t15.5 36t4 33h115 q0 -47 -15.5 -85.5t-43.5 -65.5t-67 -42t-86 -15t-86.5 13.5t-69 39t-46 63.5t-16.5 86q0 38 13 66t33 50t42.5 41t42.5 38t33 40.5t13 49.5v47h101v-47z" />
<glyph unicode="!" horiz-adv-x="323" d="M162 -7q-32 0 -54 21.5t-22 51.5q0 31 22 53t54 22q31 0 53 -22t22 -53q0 -30 -22 -51.5t-53 -21.5zM100 722h125l-20 -510h-87z" />
<glyph unicode="&#xa1;" horiz-adv-x="323" d="M162 515q31 0 53 -21.5t22 -51.5q0 -31 -22 -53t-53 -22q-32 0 -54 22t-22 53q0 30 22 51.5t54 21.5zM118 296h87l20 -510h-125z" />
<glyph unicode="(" horiz-adv-x="364" d="M209 -160q-39 51 -70 123q-26 61 -47.5 151.5t-21.5 211.5t21.5 211t47.5 152q31 71 70 123h102q-37 -55 -65 -128q-24 -63 -44 -153t-20 -205t20 -205t44 -153q28 -73 65 -128h-102v0z" />
<glyph unicode=")" horiz-adv-x="364" d="M53 -160q36 55 64 128q24 63 44.5 153t20.5 205t-20.5 205t-44.5 153q-28 73 -64 128h102q38 -52 69 -123q26 -62 48 -152t22 -211t-22 -211.5t-48 -151.5q-31 -72 -69 -123h-102v0z" />
<glyph unicode="[" horiz-adv-x="369" d="M86 812h230v-89h-128v-794h128v-89h-230v972z" />
<glyph unicode="]" horiz-adv-x="369" d="M53 -71h128v794h-128v89h230v-972h-230v89z" />
<glyph unicode="{" horiz-adv-x="405" d="M300 -160q-75 0 -115 40.5t-40 115.5v213q0 17 -7.5 30t-20.5 21.5t-29 13.5t-34 5v88q18 0 34 4.5t29 13.5t20.5 22t7.5 30v219q0 75 40 115.5t115 40.5h52v-89h-49q-31 0 -44 -15t-13 -45v-238q0 -34 -19 -62.5t-61 -39.5q42 -12 61 -41.5t19 -62.5v-229 q0 -30 13 -45.5t44 -15.5h49v-89h-52v0z" />
<glyph unicode="}" horiz-adv-x="405" d="M105 -160h-52v89h49q31 0 44 15.5t13 45.5v229q0 33 19 62.5t61 41.5q-42 11 -61 39.5t-19 62.5v238q0 30 -13 45t-44 15h-49v89h52q75 0 115 -40.5t40 -115.5v-219q0 -17 7.5 -30t20.5 -22t29 -13.5t34 -4.5v-88q-18 0 -34 -5t-29 -13.5t-20.5 -21.5t-7.5 -30v-213 q0 -75 -40 -115.5t-115 -40.5z" />
<glyph unicode="/" horiz-adv-x="567" d="M433 821h122l-420 -1020h-123z" />
<glyph unicode="\" horiz-adv-x="567" d="M554 -199h-123l-420 1020h122z" />
<glyph unicode="*" horiz-adv-x="455" d="M190 475l-103 -62l-40 68l110 60l-110 59l40 68l103 -61l-2 121h80l-3 -121l104 61l39 -68l-109 -59l109 -60l-39 -68l-104 62l3 -122h-80z" />
<glyph unicode="&#x2022;" horiz-adv-x="421" d="M66 361q0 30 11 56t30.5 45.5t46 30.5t56.5 11t56.5 -11t46 -30.5t31 -45.5t11.5 -56t-11.5 -56t-31 -45t-46 -30t-56.5 -11t-56.5 11t-46 30t-30.5 45t-11 56z" />
<glyph unicode="&#xa7;" horiz-adv-x="634" d="M539 73q0 -30 -11.5 -62.5t-37.5 -59.5t-68 -44t-103 -17q-46 0 -86.5 13t-70.5 38t-47.5 61t-17.5 82h121q0 -18 6.5 -35.5t19 -31.5t31.5 -23t44 -9q52 0 77.5 26t25.5 62q0 35 -27 56t-68 37t-88 31.5t-88 39t-68 59t-27 91.5q0 42 19.5 80t58.5 64q-18 21 -28.5 48 t-10.5 62q0 31 11 63.5t36.5 59t67 43.5t102.5 17q47 0 86.5 -13t68.5 -38t45 -61t16 -81h-121q0 17 -5.5 34.5t-17 31.5t-29.5 23t-43 9q-51 0 -75.5 -26t-24.5 -62q0 -35 27 -56t68 -37.5t88 -32t88 -38.5t68 -58.5t27 -91.5q0 -44 -19.5 -81.5t-58.5 -63.5 q18 -21 28.5 -47.5t10.5 -61.5zM456 322q0 28 -21 47t-53.5 34t-72.5 29t-79 32q-28 -10 -40 -27.5t-12 -44.5q0 -28 20.5 -47t53 -34t72.5 -29t79 -32q53 17 53 72z" />
<glyph unicode="&#x2020;" horiz-adv-x="577" d="M229 431h-196v107h196v229h120v-229h195v-107h-195v-461h-120v461z" />
<glyph unicode="&#xa9;" horiz-adv-x="886" d="M145 361q0 -62 23 -116t63.5 -94.5t95 -64t116.5 -23.5t116 23.5t94.5 64t63.5 94.5t23 116t-23 116.5t-63.5 95t-94.5 63.5t-116 23t-116.5 -23t-95 -63.5t-63.5 -95t-23 -116.5zM68 361q0 78 29.5 146.5t80 119.5t119 80.5t146.5 29.5t146.5 -29.5t119.5 -80.5 t80.5 -119.5t29.5 -146.5t-29.5 -146.5t-80.5 -119t-119.5 -80t-146.5 -29.5t-146.5 29.5t-119 80t-80 119t-29.5 146.5zM457 132q-47 0 -85 18t-65 49t-41.5 72.5t-14.5 89.5q0 47 14 89t40 73t63.5 49t84.5 18q74 0 122 -45t56 -120h-95q-1 16 -7.5 31t-17 27t-25.5 19 t-34 7q-27 0 -46 -11.5t-31 -32t-17 -47.5t-5 -57q0 -31 6 -58t18 -47t31 -31.5t46 -11.5q35 0 56.5 20.5t27.5 54.5h97q-14 -74 -63 -115t-115 -41z" />
<glyph unicode="&#xae;" horiz-adv-x="658" d="M340 477q29 0 40 15.5t11 34.5q0 21 -12.5 34t-39.5 13h-61v-97h62zM221 622h118q54 0 83.5 -24.5t29.5 -70.5q0 -42 -26 -68t-65 -26h-14l116 -130h-75l-110 129v-129h-57v319zM331 229q46 0 87 17.5t71.5 48.5t48 72t17.5 88t-17.5 88t-48 71.5t-71.5 48t-87 17.5 q-48 0 -89.5 -17.5t-72 -48t-48.5 -71.5t-18 -88t18 -88t48.5 -72t72 -48.5t89.5 -17.5zM330 172q-59 0 -110.5 22.5t-90 60.5t-61 89.5t-22.5 110.5q0 58 22.5 109.5t61 89.5t90 60.5t110.5 22.5q58 0 109.5 -22.5t89.5 -60.5t60.5 -89.5t22.5 -109.5q0 -59 -22 -110.5 t-60.5 -89.5t-90 -60.5t-109.5 -22.5z" />
<glyph unicode="&#x2122;" horiz-adv-x="664" d="M110 661h-80v61h228v-61h-80v-276h-68v276zM295 722h79l79 -238l82 238h79v-337h-71l4 186l-62 -186h-60l-66 190l5 -190h-69v337z" />
<glyph unicode="@" horiz-adv-x="1143" d="M514 122q39 0 68.5 23t50 58.5t30.5 77.5t10 80q0 54 -21 86.5t-66 32.5q-35 0 -65 -20.5t-52 -54t-34 -75.5t-12 -84q0 -21 4.5 -43t15 -40t28 -29.5t43.5 -11.5zM581 -217q-110 0 -203 40t-161 109t-106.5 162t-38.5 199t41 198.5t111.5 161t164.5 108t201 39.5 q116 0 205.5 -34.5t151 -95.5t93 -143.5t31.5 -179.5q0 -69 -16.5 -128.5t-46.5 -103.5t-71 -69t-90 -25q-40 0 -68.5 13.5t-47 34.5t-28.5 45.5t-13 45.5q-12 -27 -30 -51t-43.5 -42.5t-58.5 -29t-75 -10.5q-46 0 -80 18t-56 48t-32.5 69.5t-10.5 82.5q0 76 24 137.5 t62.5 104t87 65.5t98.5 23q25 0 49 -7t43 -22t32.5 -37.5t18.5 -53.5l20 105h100l-60 -313q-5 -29 -3.5 -54t10 -44t24 -30t38.5 -11q28 0 51.5 18.5t40.5 50.5t26.5 76t9.5 94q0 77 -23 144.5t-70.5 118t-120 79.5t-172.5 29q-87 0 -163.5 -33.5t-134.5 -91.5t-91.5 -135.5 t-33.5 -165.5q0 -90 32 -168t87.5 -135.5t131 -90.5t163.5 -33q42 0 79 7.5t67.5 19.5t54.5 26t41 27l46 -75q-50 -33 -122 -60t-166 -27z" />
<glyph unicode="&#x26;" horiz-adv-x="681" d="M258 92q38 0 65 20t57 52l-114 137l-49 -36q-47 -36 -47 -90q0 -35 24.5 -59t63.5 -24zM343 489q41 32 41 74q0 28 -19 52.5t-58 24.5q-44 0 -65 -25t-21 -60q0 -26 12.5 -47t26.5 -37l23 -27zM255 -15q-41 0 -77.5 12.5t-64.5 35.5t-44 56t-16 75q0 109 90 176l56 41 l-27 33t-30 43.5t-24 49.5t-10 52q0 45 17 78.5t45.5 55.5t65 33t76.5 11q46 0 81.5 -14t59.5 -37.5t36.5 -55t12.5 -66.5q0 -40 -23.5 -78.5t-66.5 -71.5l-65 -50l106 -127l64 73h131l-131 -153l129 -157h-132l-65 80q-18 -19 -37 -36.5t-42 -30.5t-51 -20.5t-64 -7.5z" />
<glyph unicode="%" horiz-adv-x="936" d="M215 374q34 0 47 36.5t13 99.5t-12 100.5t-48 37.5q-19 0 -31 -10t-18.5 -28t-9 -43.5t-2.5 -56.5q0 -63 13.5 -99.5t47.5 -36.5zM215 285q-42 0 -73 17t-51.5 47t-30.5 71.5t-10 89.5q0 49 10 90.5t30.5 71.5t51.5 47t73 17t72.5 -17t51 -47t30.5 -71.5t10 -90.5 q0 -48 -10 -89.5t-30 -71.5t-51 -47t-73 -17zM722 78q34 0 47 36.5t13 99.5t-12 100.5t-48 37.5q-19 0 -31 -10t-18.5 -28t-9 -43.5t-2.5 -56.5q0 -63 13.5 -99.5t47.5 -36.5zM722 -11q-42 0 -73 17t-51.5 47t-30.5 71.5t-10 89.5q0 49 10 90.5t30.5 71.5t51.5 47t73 17 t72.5 -17t51 -47t30.5 -71.5t10 -90.5q0 -48 -10 -89.5t-30 -71.5t-51 -47t-73 -17zM618 722h103l-405 -722h-104z" />
<glyph unicode="&#x2030;" horiz-adv-x="1320" d="M215 374q34 0 47 36.5t13 99.5t-12 100.5t-48 37.5q-19 0 -31 -10t-18.5 -28t-9 -43.5t-2.5 -56.5q0 -63 13.5 -99.5t47.5 -36.5zM215 285q-42 0 -73 17t-51.5 47t-30.5 71.5t-10 89.5q0 49 10 90.5t30.5 71.5t51.5 47t73 17t72.5 -17t51 -47t30.5 -71.5t10 -90.5 q0 -48 -10 -89.5t-30 -71.5t-51 -47t-73 -17zM722 78q34 0 47 36.5t13 99.5t-12 100.5t-48 37.5q-19 0 -31 -10t-18.5 -28t-9 -43.5t-2.5 -56.5q0 -63 13.5 -99.5t47.5 -36.5zM722 -11q-42 0 -73 17t-51.5 47t-30.5 71.5t-10 89.5q0 49 10 90.5t30.5 71.5t51.5 47t73 17 t72.5 -17t51 -47t30.5 -71.5t10 -90.5q0 -48 -10 -89.5t-30 -71.5t-51 -47t-73 -17zM1105 78q34 0 47 36.5t13 99.5t-12 100.5t-48 37.5q-19 0 -31 -10t-18.5 -28t-9 -43.5t-2.5 -56.5q0 -63 13.5 -99.5t47.5 -36.5zM1105 -11q-42 0 -73 17t-51.5 47t-30.5 71.5t-10 89.5 q0 49 10 90.5t30.5 71.5t51.5 47t73 17t72.5 -17t51 -47t30.5 -71.5t10 -90.5q0 -48 -10 -89.5t-30 -71.5t-51 -47t-73 -17zM618 722h103l-405 -722h-104z" />
</font>
</defs>
</svg>
